<svg width="1990" height="708" viewBox="0 0 1990 708" fill="none" xmlns="http://www.w3.org/2000/svg">
<path d="M366.772 6.65354C372.863 13.3435 375.402 19.1889 376.364 28.1743C375.444 36.7603 372.74 42.7808 367.479 49.5941C360.013 55.441 352.017 57.2055 342.875 59.3567C326.617 63.2999 312.844 69.4109 298.218 77.4802C296.852 78.2332 295.486 78.9863 294.078 79.7622C275.013 90.3333 256.178 101.305 237.372 112.329C224.855 119.659 212.278 126.877 199.677 134.061C183.973 143.016 168.324 152.059 152.722 161.193C141.002 168.051 129.255 174.862 117.493 181.649C115.769 182.645 114.045 183.641 112.268 184.667C104.075 189.398 95.8758 194.116 87.6562 198.801C84.7797 200.441 81.9053 202.084 79.0315 203.729C75.4329 205.787 71.8305 207.838 68.2236 209.882C47.2268 221.288 47.2268 221.288 34.9049 240.755C34.2228 249.628 35.3723 255.613 39.7511 263.387C43.1484 267.19 46.5416 270.676 51.059 273.087C58.0973 271.871 63.9022 268.178 70.0402 264.701C71.3073 263.99 72.5744 263.278 73.88 262.546C87.7209 254.739 101.424 246.693 115.133 238.659C125.454 232.614 135.806 226.624 146.167 220.649C147.911 219.643 149.655 218.637 151.452 217.601C154.99 215.561 158.528 213.521 162.067 211.481C172.57 205.425 183.068 199.362 193.566 193.297C201.66 188.621 209.757 183.95 217.865 179.298C220.706 177.667 223.546 176.035 226.385 174.403C229.926 172.368 233.468 170.337 237.012 168.309C257.786 156.359 276.449 144.558 292.16 126.18C298.181 119.316 302.693 115.281 312.062 114.169C322.375 113.691 328.794 114.769 336.988 121.128C343.031 128.926 345.666 135.106 345.519 145.067C344.496 153.048 340.86 159.25 335.284 164.915C328.891 169.072 322.67 170.276 315.281 171.848C287.939 178.291 266.045 191.043 242.077 205.317C233.438 210.434 224.735 215.438 216.033 220.447C212.504 222.482 208.974 224.518 205.445 226.553C203.692 227.564 201.939 228.574 200.133 229.615C191.364 234.672 182.597 239.734 173.831 244.797C164.014 250.465 154.196 256.133 144.377 261.798C141.549 263.43 138.721 265.062 135.894 266.693C132.373 268.725 128.852 270.756 125.33 272.787C123.714 273.72 122.099 274.652 120.434 275.613C118.864 276.517 117.294 277.422 115.677 278.354C112.245 280.347 108.825 282.362 105.414 284.39C103.665 285.428 101.916 286.466 100.115 287.535C98.5298 288.483 96.9448 289.432 95.3118 290.408C91.4445 292.486 91.4445 292.486 88.2136 292.486C91.8679 296.487 95.5679 298.993 100.298 301.611C101.758 302.426 103.218 303.242 104.722 304.082C106.305 304.956 107.887 305.831 109.517 306.732C112.917 308.633 116.316 310.536 119.714 312.441C122.335 313.91 122.335 313.91 125.009 315.409C133.087 319.975 141.092 324.666 149.095 329.364C163.211 337.642 177.385 345.811 191.6 353.916C207.348 362.898 223.059 371.937 238.69 381.119C247.099 386.058 255.534 390.941 264.016 395.752C265.819 396.782 267.622 397.812 269.48 398.874C272.96 400.861 276.448 402.834 279.945 404.792C282.268 406.125 282.268 406.125 284.638 407.485C286.016 408.263 287.393 409.042 288.812 409.844C289.784 410.593 290.755 411.342 291.756 412.113C291.756 413.714 291.756 415.314 291.756 416.963C290.031 417.948 290.031 417.948 288.271 418.953C266.898 431.155 245.537 443.375 224.212 455.66C222.473 456.657 220.733 457.654 218.942 458.682C211.49 462.971 204.092 467.292 196.857 471.94C195.741 472.648 194.626 473.357 193.476 474.087C190.653 475.9 187.857 477.754 185.063 479.612C180.292 481.626 180.292 481.626 175.9 480.982C168.104 477.174 160.682 472.837 153.234 468.391C149.739 466.327 146.243 464.264 142.747 462.202C140.042 460.603 140.042 460.603 137.284 458.972C128.565 453.839 119.799 448.788 111.031 443.738C109.302 442.74 107.572 441.742 105.79 440.714C96.7605 435.505 87.7269 430.302 78.6915 425.103C46.9379 406.821 46.9379 406.821 33.6933 398.979C31.9358 397.941 30.1782 396.903 28.3675 395.834C20.2189 390.505 13.5897 385.238 8.65433 376.649C7.87969 375.335 7.10504 374.02 6.30693 372.665C-0.165908 359.69 -1.07726 345.526 0.981099 331.284C4.08227 322.336 8.6837 314.872 13.9044 307.035C14.9706 307.035 16.0368 307.035 17.1353 307.035C16.8687 308.302 16.6022 309.569 16.3276 310.875C14.4384 324.581 14.6633 335.356 21.9815 347.45C32.4203 360.284 49.0289 367.898 63.2756 375.74C78.6272 384.266 93.8556 392.973 109.003 401.857C121.463 409.165 133.957 416.414 146.47 423.631C149.107 425.154 149.107 425.154 151.798 426.706C155.04 428.576 158.287 430.438 161.539 432.291C164.122 433.795 166.678 435.35 169.179 436.986C172.35 439.122 172.35 439.122 177.062 441.212C183.309 439.316 188.738 436.058 194.352 432.769C196.067 431.766 197.783 430.762 199.551 429.728C201.325 428.683 203.1 427.638 204.928 426.562C206.727 425.51 208.526 424.459 210.38 423.376C218.389 419.152 218.389 419.152 225.524 413.73C223.799 412.745 223.799 412.745 222.038 411.74C195.816 396.769 169.63 381.736 143.49 366.621C136.51 362.586 129.527 358.555 122.545 354.524C119.054 352.509 115.563 350.493 112.072 348.478C103.143 343.322 94.2128 338.169 85.2794 333.021C76.5067 327.965 67.7418 322.896 58.9791 317.823C54.663 315.333 50.336 312.864 46.0045 310.401C26.2095 299.082 10.1538 288.657 2.36935 266.141C-2.02234 247.203 -0.336113 227.692 9.82172 210.975C20.5843 195.8 37.3414 187.337 53.2346 178.413C58.2401 175.601 63.23 172.762 68.2228 169.929C69.2323 169.357 70.2417 168.785 71.2818 168.196C80.8101 162.793 90.2737 157.281 99.7235 151.742C118.306 140.862 136.95 130.089 155.605 119.335C164.375 114.279 173.141 109.216 181.908 104.154C185.408 102.133 188.908 100.112 192.408 98.0916C194.141 97.0914 195.873 96.0911 197.658 95.0605C213.408 85.9672 213.408 85.9672 218.665 82.933C222.144 80.9238 225.623 78.9136 229.102 76.9024C237.206 72.2181 245.315 67.5428 253.446 62.9035C256.3 61.2743 259.152 59.6419 262.003 58.0085C265.563 55.971 269.126 53.9393 272.693 51.9148C292.195 40.7326 310.84 28.3549 324.973 10.594C335.824 -2.0917 353.343 -3.35872 366.772 6.65354ZM340.623 21.1018C337.646 25.5694 337.839 28.5907 338.603 33.8324C341.151 37.1925 341.151 37.1925 345.065 38.6821C349.322 38.6924 349.322 38.6924 353.142 37.0655C356.611 31.8578 357.279 30.1796 356.373 24.1329C353.67 21.0265 353.67 21.0265 349.911 19.2831C343.795 18.7003 343.795 18.7003 340.623 21.1018ZM310.838 134.263C307.457 137.19 307.457 137.19 307.103 142.144C307.486 147.058 307.486 147.058 310.636 150.125C315.365 152.3 317.58 151.893 322.449 150.227C326.147 147.185 326.147 147.185 326.286 142.245C326.172 137.194 326.172 137.194 322.752 134.263C318.03 131.832 315.56 131.832 310.838 134.263Z" fill="url(#paint0_radial_9_17)"/>
<path d="M309.482 230.464C312.452 231.99 315.379 233.602 318.263 235.286C319.928 236.252 321.594 237.219 323.31 238.214C325.084 239.256 326.858 240.297 328.686 241.371C330.569 242.467 332.452 243.562 334.335 244.656C339.153 247.459 343.964 250.272 348.774 253.088C354.529 256.458 360.291 259.818 366.052 263.179C369.185 265.008 372.318 266.838 375.451 268.669C384.307 273.837 393.187 278.96 402.099 284.033C403.098 284.601 404.097 285.17 405.127 285.757C409.965 288.51 414.805 291.258 419.65 293.999C471.512 323.452 471.512 323.452 478.524 347.492C481.572 364.076 480.321 381.113 470.59 395.298C468.373 398.006 468.373 398.006 464.734 401.742C463.117 396.895 463.117 396.895 463.824 394.168C466.763 382.096 463.961 372.113 458.265 361.347C453.892 355.249 449.864 351.63 443.331 347.972C441.655 347.021 439.98 346.07 438.253 345.091C436.452 344.09 434.65 343.089 432.794 342.057C430.896 340.986 428.998 339.913 427.102 338.838C423.208 336.632 419.31 334.432 415.411 332.236C407.067 327.525 398.809 322.668 390.545 317.82C370.821 306.291 351.014 294.899 331.104 283.693C327.218 281.455 323.41 279.174 319.61 276.798C318.604 276.184 317.598 275.57 316.561 274.937C313.745 273.215 310.949 271.462 308.153 269.707C303.147 267.141 303.147 267.141 298.091 268.572C293.209 270.908 288.532 273.37 283.872 276.124C282.152 277.134 280.432 278.144 278.66 279.185C276.891 280.237 275.121 281.289 273.297 282.372C271.49 283.437 269.682 284.501 267.82 285.598C263.374 288.218 258.934 290.846 254.497 293.481C259.268 297.207 264.177 300.307 269.431 303.309C271.945 304.751 271.945 304.751 274.509 306.221C276.311 307.25 278.112 308.278 279.968 309.337C283.806 311.536 287.642 313.737 291.478 315.939C292.45 316.497 293.423 317.054 294.425 317.628C303.718 322.961 312.97 328.365 322.218 333.776C336.251 341.978 350.343 350.072 364.467 358.115C382.072 368.14 399.618 378.262 417.096 388.506C422.707 391.795 428.335 395.049 433.988 398.265C453.366 409.333 469.523 419.512 477.368 441.431C482.702 461.34 479.789 479.743 469.889 497.481C460.602 509.146 450.532 516.482 437.545 523.738C435.851 524.705 434.157 525.671 432.411 526.667C428.828 528.711 425.242 530.748 421.651 532.778C414.614 536.766 407.612 540.812 400.61 544.861C395.342 547.906 390.07 550.943 384.796 553.978C374.243 560.052 363.695 566.132 353.147 572.213C349.643 574.233 346.139 576.253 342.635 578.273C340.9 579.272 339.166 580.272 337.379 581.302C279.564 614.629 279.564 614.629 274.304 617.661C270.813 619.673 267.322 621.686 263.832 623.7C254.879 628.865 245.919 634.017 236.948 639.151C193.582 662.898 193.582 662.898 157.06 695.623C151.033 702.483 146.516 706.517 137.136 707.628C126.812 708.106 120.386 707.028 112.183 700.672C106.134 692.878 103.495 686.701 103.642 676.744C104.677 668.691 108.322 662.45 114.091 656.862C119.426 653.295 124.493 651.948 130.68 650.682C151.69 646.128 170.135 638.3 188.596 627.354C190.559 626.209 192.523 625.065 194.488 623.924C198.514 621.583 202.534 619.232 206.55 616.873C213.889 612.566 221.27 608.333 228.651 604.097C243.706 595.453 258.713 586.728 273.701 577.97C288.693 569.209 303.755 560.576 318.843 551.984C333.582 543.59 348.265 535.105 362.905 526.54C371.432 521.554 379.974 516.596 388.542 511.682C389.479 511.145 390.416 510.607 391.381 510.053C395.889 507.466 400.399 504.882 404.914 502.306C427.707 491.053 427.707 491.053 443.71 472.839C445.987 464.19 445.946 456.633 442.333 448.387C439.046 443.048 434.832 438.441 429.155 435.675C422.417 436.413 417.56 438.939 411.739 442.309C409.922 443.353 408.105 444.398 406.233 445.475C404.271 446.618 402.31 447.761 400.349 448.905C398.308 450.084 396.267 451.262 394.225 452.439C388.07 455.992 381.928 459.567 375.788 463.144C374.058 464.15 372.329 465.155 370.547 466.191C362.576 470.826 354.613 475.471 346.653 480.123C327.69 491.195 308.637 502.114 289.605 513.066C286.974 514.581 286.974 514.581 284.289 516.126C282.538 517.134 280.787 518.141 278.983 519.18C273.738 522.202 268.499 525.233 263.259 528.264C256.314 532.277 249.342 536.239 242.349 540.168C220.361 552.602 200.081 564.887 184.092 584.887C179.17 590.447 174.288 593.613 166.789 594.412C156.71 594.709 151.065 593.593 142.91 587.564C135.435 579.505 134.328 573.172 134.483 562.518C135.16 554.498 138.256 550.148 143.952 544.675C149.331 540.308 154.899 538.789 161.609 537.473C163.929 536.946 166.248 536.409 168.564 535.863C169.704 535.595 170.843 535.326 172.017 535.05C202.555 527.42 230.454 507.429 257.302 491.693C267.593 485.664 277.92 479.699 288.256 473.748C290 472.744 291.744 471.739 293.541 470.705C300.628 466.624 307.716 462.545 314.804 458.466C340.031 443.946 365.212 429.353 390.342 414.669C385.604 410.973 380.736 407.883 375.522 404.898C373.863 403.945 372.203 402.993 370.494 402.011C368.705 400.989 366.916 399.967 365.074 398.915C363.187 397.833 361.3 396.75 359.413 395.667C355.495 393.418 351.576 391.172 347.655 388.926C338.694 383.791 329.749 378.627 320.803 373.465C317.299 371.445 313.795 369.426 310.291 367.406C299.779 361.347 299.779 361.347 289.267 355.287C287.531 354.287 285.796 353.286 284.008 352.255C280.515 350.242 277.023 348.229 273.531 346.216C264.592 341.062 255.652 335.911 246.708 330.766C237.942 325.722 229.184 320.665 220.428 315.604C215.959 313.029 211.477 310.477 206.992 307.929C204.465 306.48 201.938 305.03 199.411 303.58C197.707 302.625 197.707 302.625 195.968 301.65C188.375 297.263 188.375 297.263 186.574 291.866C187.753 291.216 188.932 290.566 190.146 289.897C217.273 274.999 217.273 274.999 244.086 259.549C245.105 258.95 246.124 258.351 247.174 257.733C253.335 254.103 259.461 250.42 265.57 246.701C269.372 244.396 273.192 242.12 277.014 239.848C278.901 238.718 280.781 237.575 282.653 236.421C285.284 234.8 287.942 233.224 290.6 231.65C292.136 230.721 293.672 229.791 295.254 228.834C301.261 226.708 303.755 227.861 309.482 230.464ZM152.613 564.942C154.125 570.159 154.953 572.48 159.688 575.344C163.827 576.52 163.827 576.52 167.572 575.546C170.952 572.992 170.952 572.992 171.919 567.467C172.512 561.937 172.512 561.937 170.2 558.58C161.601 553.711 157.639 557.502 152.613 564.942ZM126.435 671.789C123.049 674.715 123.049 674.715 122.695 679.666C123.079 684.579 123.079 684.579 126.232 687.645C130.966 689.818 133.184 689.412 138.058 687.746C141.761 684.706 141.761 684.706 141.899 679.767C141.785 674.719 141.785 674.719 138.362 671.789C133.634 669.36 131.162 669.36 126.435 671.789Z" fill="url(#paint1_radial_9_17)"/>
<path d="M1813 122.001C1813.25 127.303 1813.43 132.601 1813.55 137.907C1813.6 139.71 1813.67 141.512 1813.75 143.313C1814.46 158.378 1814.46 158.378 1810.85 162.386C1808.29 163.858 1805.75 164.93 1803 166.001C1800.75 168.235 1800.75 168.235 1799.5 170.689C1798.83 171.808 1798.83 171.808 1798.16 172.951C1796.46 177.439 1795.86 182.278 1795 187.001C1815.79 187.001 1836.58 187.001 1858 187.001C1858.05 192.181 1858.1 197.36 1858.15 202.697C1858.18 206.005 1858.22 209.314 1858.26 212.622C1858.32 217.858 1858.38 223.093 1858.42 228.329C1858.46 232.557 1858.51 236.784 1858.56 241.012C1858.58 242.613 1858.59 244.215 1858.6 245.817C1858.73 263.046 1859.16 282.293 1871.56 295.685C1880.61 304.065 1892.17 306.298 1904.19 305.98C1916.97 305.373 1929.38 302.428 1940 295.001C1940.73 294.624 1941.45 294.246 1942.2 293.857C1945.83 291.497 1948.46 289.21 1949.52 284.856C1950.39 278.053 1950.18 271.188 1950.1 264.345C1950.1 262.114 1950.11 259.884 1950.13 257.653C1950.15 251.8 1950.12 245.949 1950.08 240.096C1950.05 234.116 1950.07 228.137 1950.08 222.158C1950.11 210.438 1950.07 198.72 1950 187.001C1962.87 187.001 1975.74 187.001 1989 187.001C1989.09 206.77 1989.16 226.538 1989.21 246.306C1989.23 255.487 1989.26 264.667 1989.3 273.847C1989.34 281.857 1989.37 289.867 1989.38 297.877C1989.38 302.111 1989.39 306.344 1989.42 310.578C1989.62 340.078 1988.01 365.937 1966.81 388.689C1945.04 409.499 1913.99 411.757 1885.45 411.133C1865.96 410.389 1847.31 405.528 1829.25 398.314C1828.53 398.029 1827.81 397.743 1827.06 397.45C1825.08 396.615 1825.08 396.615 1822 395.001C1820.63 390.877 1821.91 389.38 1823.71 385.47C1824 384.838 1824.29 384.205 1824.58 383.554C1825.5 381.532 1826.44 379.517 1827.38 377.501C1828.3 375.485 1829.22 373.467 1830.15 371.449C1830.99 369.616 1831.83 367.786 1832.68 365.956C1834.04 363.032 1834.04 363.032 1835 360.001C1838.59 361.362 1841.88 362.989 1845.25 364.814C1867.41 375.96 1896.53 379.314 1920.39 372.255C1931.08 368.54 1939.23 363.23 1944.57 353.001C1948.26 344.584 1949.19 337.093 1949 328.001C1947.51 328.798 1947.51 328.798 1945.99 329.611C1922.24 342.064 1893.35 346.729 1867.11 339.384C1849.04 333.623 1835.88 322.792 1827 306.001C1818.01 287.466 1818.6 268.19 1818.79 248.089C1818.83 244.575 1818.84 241.062 1818.85 237.548C1818.89 230.699 1818.94 223.85 1819 217.001C1811.08 217.001 1803.16 217.001 1795 217.001C1795 258.251 1795 299.501 1795 342.001C1781.8 342.001 1768.6 342.001 1755 342.001C1755 300.751 1755 259.501 1755 217.001C1746.42 217.001 1737.84 217.001 1729 217.001C1729 207.101 1729 197.201 1729 187.001C1737.58 187.001 1746.16 187.001 1755 187.001C1755 184.031 1755 181.061 1755 178.001C1756.72 160.446 1763.78 145.534 1777.34 134.017C1787.48 126.337 1800.27 121.913 1813 122.001Z" fill="url(#paint2_linear_9_17)"/>
<path d="M611.562 134.751C612.282 134.751 613.002 134.75 613.744 134.749C646.202 134.797 684.993 139.195 714 155.001C714.33 155.661 714.66 156.321 715 157.001C713.965 159.294 712.874 161.453 711.668 163.654C711.316 164.31 710.964 164.966 710.602 165.641C709.471 167.745 708.329 169.842 707.188 171.939C706.428 173.349 705.67 174.76 704.912 176.171C699.401 186.399 699.401 186.399 697 190.001C693.554 189.38 690.365 188.509 687.07 187.329C676.796 183.73 666.589 180.425 655.938 178.126C655.06 177.936 654.183 177.745 653.28 177.549C640.13 174.846 627.276 173.649 613.884 173.686C611.502 173.689 609.121 173.665 606.738 173.64C590.967 173.574 573.312 175.372 560.406 185.431C556.982 189.255 555.254 194.107 554.809 199.181C555.145 204.425 557.31 208.411 561 212.001C568.864 217.395 577.849 218.358 587.129 218.283C588.086 218.278 589.044 218.274 590.03 218.269C599.484 218.138 608.756 217.081 618.122 215.863C650.421 211.718 686.417 207.442 714.875 226.751C726.111 235.459 732.703 247.048 735 261.001C736.759 279.729 733.304 296.039 721.594 311.095C715.15 318.797 707.754 324.178 699 329.001C697.872 329.628 696.744 330.254 695.582 330.9C650.816 353.656 588.902 348.616 542.591 333.792C527.709 328.876 513.173 323.646 500 315.001C506.174 303.011 514.203 291.974 522 281.001C526.511 281.609 530.097 283.46 534.062 285.564C561.397 299.514 590.035 306.393 620.715 306.317C623.365 306.314 626.014 306.337 628.664 306.363C646.748 306.43 670.049 305.034 684 292.001C688.498 286.366 690.394 280.193 690 273.001C688.88 267.383 686.509 263.608 682 260.001C672.949 254.427 663.862 253.586 653.438 253.564C652.196 253.561 650.955 253.558 649.676 253.554C636.977 253.709 624.557 255.406 611.993 257.137C585.027 260.845 555.877 263.304 532.32 246.771C531.555 246.187 530.789 245.603 530 245.001C528.913 244.203 528.913 244.203 527.805 243.388C517.943 235.532 511.932 223.358 510 211.001C509.013 193.841 511.7 178.014 523.375 164.689C524.895 163.105 526.436 161.541 528 160.001C528.638 159.365 529.276 158.728 529.934 158.072C551.249 138.13 583.748 134.775 611.562 134.751Z" fill="url(#paint3_linear_9_17)"/>
<path d="M1037 122.001C1037 133.881 1037 145.761 1037 158.001C1033.04 159.651 1029.08 161.301 1025 163.001C1015.86 169.287 1014.37 176.327 1012 187.001C1028.17 187.001 1044.34 187.001 1061 187.001C1061 171.491 1061 155.981 1061 140.001C1074.2 140.001 1087.4 140.001 1101 140.001C1101 155.511 1101 171.021 1101 187.001C1113.21 187.001 1125.42 187.001 1138 187.001C1138 196.901 1138 206.801 1138 217.001C1125.79 217.001 1113.58 217.001 1101 217.001C1101 258.251 1101 299.501 1101 342.001C1087.8 342.001 1074.6 342.001 1061 342.001C1061 300.751 1061 259.501 1061 217.001C1044.83 217.001 1028.66 217.001 1012 217.001C1012 258.251 1012 299.501 1012 342.001C998.8 342.001 985.6 342.001 972 342.001C972 300.751 972 259.501 972 217.001C963.42 217.001 954.84 217.001 946 217.001C946 207.101 946 197.201 946 187.001C954.58 187.001 963.16 187.001 972 187.001C972.083 185.001 972.165 183 972.25 180.939C973.506 163.689 979.236 147.328 992.574 135.771C1006.28 125.348 1019.88 122.001 1037 122.001Z" fill="url(#paint4_linear_9_17)"/>
<path d="M1241.25 184.689C1242.27 184.692 1242.27 184.692 1243.32 184.694C1270.55 184.817 1294.92 192.944 1315.19 211.689C1333.58 230.925 1337 253.975 1337 280.001C1265.72 280.496 1265.72 280.496 1193 281.001C1202.46 296.13 1213.6 302.318 1230.54 306.974C1256.06 312.749 1280.64 307.974 1305.11 300.504C1307 300.001 1307 300.001 1309 300.001C1310.74 303.747 1312.47 307.501 1314.18 311.262C1314.77 312.54 1315.35 313.815 1315.95 315.088C1316.8 316.922 1317.64 318.764 1318.47 320.607C1318.98 321.712 1319.49 322.817 1320.01 323.955C1321.08 327.239 1321.28 328.806 1320 332.001C1318.41 333.148 1318.41 333.148 1316.34 333.88C1315.19 334.299 1315.19 334.299 1314.02 334.727C1313.19 335.003 1312.36 335.279 1311.5 335.564C1310.64 335.861 1309.79 336.159 1308.9 336.465C1272.19 348.882 1226.92 350.588 1191.56 333.126C1185.34 329.918 1179.51 326.348 1174 322.001C1173.24 321.421 1172.49 320.841 1171.71 320.243C1158.78 309.623 1151.09 294.25 1148 278.001C1147.59 273.72 1147.52 269.488 1147.56 265.189C1147.57 264.049 1147.58 262.91 1147.59 261.736C1148.02 240.668 1156.63 223.092 1171.64 208.419C1191.16 191.063 1215.58 184.58 1241.25 184.689ZM1200.12 235.439C1194.33 241.367 1194.33 241.367 1192 249.001C1225.99 249.001 1259.98 249.001 1295 249.001C1289.86 237.013 1283.06 229.415 1270.94 224.189C1268.97 223.434 1266.99 222.702 1265 222.001C1264.33 221.765 1263.67 221.529 1262.98 221.286C1241.83 214.985 1216.07 220.147 1200.12 235.439Z" fill="url(#paint5_linear_9_17)"/>
<path d="M1536 125.001C1549.2 125.001 1562.4 125.001 1576 125.001C1576 149.091 1576 173.181 1576 198.001C1581.28 195.691 1586.56 193.381 1592 191.001C1595.57 189.909 1598.95 188.93 1602.56 188.126C1603.39 187.928 1604.21 187.729 1605.06 187.525C1630.58 181.496 1660.23 182.792 1682.99 196.849C1700.7 209.188 1710.99 226.038 1715.01 247.195C1716.59 256.355 1716.37 265.55 1716.29 274.814C1716.29 276.764 1716.28 278.714 1716.28 280.664C1716.27 285.741 1716.24 290.817 1716.21 295.893C1716.17 302.014 1716.16 308.135 1716.14 314.256C1716.11 323.505 1716.05 332.753 1716 342.001C1703.13 342.001 1690.26 342.001 1677 342.001C1676.96 336.461 1676.93 330.921 1676.89 325.212C1676.86 321.676 1676.83 318.139 1676.79 314.603C1676.74 309.005 1676.69 303.408 1676.65 297.81C1676.63 293.29 1676.59 288.771 1676.54 284.252C1676.52 282.539 1676.51 280.825 1676.5 279.112C1676.43 262.407 1675.16 245.695 1663.12 232.88C1651.13 222.262 1635.97 219.09 1620.41 219.689C1608.49 220.414 1597.62 223.545 1587.02 228.975C1585.67 229.66 1584.3 230.308 1582.92 230.917C1579.75 232.514 1577.45 233.698 1576.26 237.164C1575.97 239.934 1575.94 242.606 1576 245.391C1575.99 246.436 1575.98 247.48 1575.97 248.556C1575.94 252.004 1575.97 255.448 1576 258.896C1575.99 261.288 1575.98 263.679 1575.97 266.071C1575.94 272.363 1575.96 278.654 1575.99 284.946C1576.01 291.367 1575.98 297.789 1575.96 304.21C1575.93 316.808 1575.95 329.404 1576 342.001C1562.8 342.001 1549.6 342.001 1536 342.001C1536 270.391 1536 198.781 1536 125.001Z" fill="url(#paint6_linear_9_17)"/>
<path d="M909.156 205.314C923.791 216.844 933.634 232.637 937 251.001C937.13 251.695 937.26 252.388 937.395 253.103C937.699 255.075 937.877 257.01 938 259.001C938.079 260.285 938.079 260.285 938.16 261.595C938.758 280.932 932.478 299.534 919.688 314.126C918.141 315.767 916.579 317.393 915 319.001C914.335 319.691 913.67 320.381 912.984 321.091C893.452 339.915 864.756 345.545 838.566 345.355C810.868 344.702 783.482 335.83 763.937 315.349C750.557 299.136 743.675 280.013 745.246 258.9C747.151 239.302 755.131 223.709 769 210.001C769.657 209.334 770.315 208.666 770.992 207.978C806.512 174.287 871.679 177.855 909.156 205.314ZM796.687 237.189C788.464 246.894 786.149 258.618 787 271.001C789.367 283.824 796.423 293.654 806.934 301.072C821.481 310.226 839.448 312.459 856.242 309.314C870.017 305.933 881.786 299.587 889.812 287.689C896.065 277.169 898.02 266.03 895.309 253.911C893.203 247.63 890.061 242.214 886 237.001C885.545 236.397 885.09 235.792 884.621 235.169C876.002 225.2 860.979 220.352 848.27 219.161C828.864 217.792 810.444 222.996 796.687 237.189Z" fill="url(#paint7_linear_9_17)"/>
<path d="M1511 200.001C1510.42 204.249 1508.95 207.072 1506.66 210.669C1505.99 211.727 1505.32 212.785 1504.63 213.874C1503.93 214.968 1503.22 216.062 1502.5 217.189C1501.11 219.369 1499.73 221.55 1498.34 223.732C1497.73 224.695 1497.11 225.658 1496.47 226.65C1495.01 228.903 1495.01 228.903 1494 231.001C1492.82 230.609 1491.65 230.218 1490.44 229.814C1489.62 229.543 1488.8 229.272 1487.96 228.993C1485.77 228.261 1483.59 227.514 1481.41 226.759C1459.14 219.078 1435.97 216.835 1414 227.001C1403.1 233.133 1396.25 241.255 1392 253.001C1389.14 264.286 1390.5 276.147 1396.29 286.243C1404.87 298.532 1417.62 305.568 1432.16 308.533C1456.1 311.452 1476.87 305.858 1498 295.001C1509.58 313.252 1509.58 313.252 1513.75 320.064C1514.2 320.797 1514.65 321.531 1515.11 322.286C1516 324.001 1516 324.001 1516 326.001C1481.39 343.682 1442.87 351.609 1404.83 339.949C1393.18 336.15 1383.44 330.844 1374 323.001C1373.4 322.542 1372.79 322.083 1372.17 321.611C1357.92 310.416 1350.51 291.726 1348.25 274.189C1348.14 272.794 1348.06 271.398 1348 270.001C1347.94 268.876 1347.94 268.876 1347.88 267.728C1347.34 247.979 1353.38 228.616 1366.44 213.689C1367.94 212.108 1369.46 210.544 1371 209.001C1371.61 208.376 1372.23 207.751 1372.86 207.107C1407.52 174.299 1471.71 179.457 1511 200.001Z" fill="url(#paint8_linear_9_17)"/>
<path d="M547.373 462.158H507.93V443.154H608.486V462.158H569.043V550H547.373V462.158ZM625.303 509.395C625.303 503.926 626.419 498.708 628.652 493.74C630.885 488.727 634.098 484.307 638.291 480.479C642.484 476.65 647.611 473.597 653.672 471.318C659.779 469.04 666.706 467.9 674.453 467.9C682.155 467.9 689.082 469.062 695.234 471.387C701.432 473.665 706.673 476.81 710.957 480.82C715.286 484.831 718.59 489.548 720.869 494.971C723.193 500.394 724.355 506.204 724.355 512.402C724.355 513.177 724.333 514.02 724.287 514.932C724.287 515.798 724.242 516.595 724.15 517.324H647.861C648.727 519.74 650.117 521.95 652.031 523.955C653.991 525.96 656.429 527.692 659.346 529.15C662.262 530.609 665.635 531.748 669.463 532.568C673.291 533.343 677.529 533.73 682.178 533.73C686.826 533.73 691.452 533.252 696.055 532.295C700.658 531.292 705.055 530.039 709.248 528.535L716.084 543.984C713.441 545.215 710.752 546.309 708.018 547.266C705.329 548.177 702.503 548.952 699.541 549.59C696.624 550.182 693.548 550.638 690.312 550.957C687.122 551.276 683.75 551.436 680.195 551.436C671.126 551.436 663.174 550.342 656.338 548.154C649.502 545.967 643.783 542.982 639.18 539.199C634.577 535.417 631.113 530.973 628.789 525.869C626.465 520.765 625.303 515.273 625.303 509.395ZM702.891 501.533C702.161 499.3 701.022 497.227 699.473 495.312C697.969 493.353 696.077 491.667 693.799 490.254C691.52 488.796 688.877 487.656 685.869 486.836C682.861 486.016 679.557 485.605 675.957 485.605C672.129 485.605 668.643 486.038 665.498 486.904C662.354 487.77 659.596 488.932 657.227 490.391C654.857 491.849 652.874 493.535 651.279 495.449C649.73 497.363 648.59 499.391 647.861 501.533H702.891ZM741.309 509.873C741.309 503.949 742.38 498.434 744.521 493.33C746.709 488.18 749.876 483.737 754.023 480C758.216 476.217 763.32 473.255 769.336 471.113C775.397 468.971 782.301 467.9 790.049 467.9C793.421 467.9 796.816 468.105 800.234 468.516C803.652 468.926 806.934 469.518 810.078 470.293C813.268 471.022 816.253 471.911 819.033 472.959C821.813 473.962 824.229 475.078 826.279 476.309L816.914 491.553C812.493 489.502 808.301 487.998 804.336 487.041C800.417 486.084 796.429 485.605 792.373 485.605C787.725 485.605 783.555 486.221 779.863 487.451C776.172 488.636 773.027 490.322 770.43 492.51C767.878 494.652 765.918 497.204 764.551 500.166C763.229 503.083 762.568 506.273 762.568 509.736C762.568 513.2 763.275 516.413 764.688 519.375C766.146 522.292 768.174 524.821 770.771 526.963C773.415 529.059 776.582 530.723 780.273 531.953C784.01 533.138 788.158 533.73 792.715 533.73C797.728 533.73 802.445 533.024 806.865 531.611C811.331 530.199 815.479 528.307 819.307 525.938L828.672 541.182C826.257 542.64 823.636 544.007 820.811 545.283C817.985 546.514 814.954 547.585 811.719 548.496C808.529 549.408 805.156 550.114 801.602 550.615C798.092 551.162 794.447 551.436 790.664 551.436C782.962 551.436 776.058 550.387 769.951 548.291C763.844 546.195 758.672 543.301 754.434 539.609C750.195 535.872 746.937 531.475 744.658 526.416C742.425 521.357 741.309 515.843 741.309 509.873ZM850.479 436.66H870.713V475.488C874.951 473.164 879.668 471.318 884.863 469.951C890.104 468.584 895.596 467.9 901.338 467.9C907.992 467.9 913.962 468.88 919.248 470.84C924.58 472.799 929.092 475.625 932.783 479.316C936.475 482.962 939.3 487.406 941.26 492.646C943.265 497.887 944.268 503.789 944.268 510.352V550H924.102V511.172C924.102 507.344 923.486 503.857 922.256 500.713C921.025 497.523 919.225 494.788 916.855 492.51C914.486 490.231 911.592 488.477 908.174 487.246C904.801 485.97 900.973 485.332 896.689 485.332C891.54 485.332 886.755 486.152 882.334 487.793C877.913 489.434 874.04 491.507 870.713 494.014V550H850.479V436.66ZM966.963 469.336H987.197V476.172C992.575 473.118 997.702 470.977 1002.58 469.746C1007.5 468.516 1012.31 467.9 1017 467.9C1023.15 467.9 1028.85 468.812 1034.09 470.635C1039.33 472.412 1043.87 475.078 1047.7 478.633C1051.52 482.188 1054.51 486.631 1056.65 491.963C1058.84 497.249 1059.93 503.379 1059.93 510.352V550H1039.77V513.633C1039.77 509.212 1039.13 505.27 1037.85 501.807C1036.62 498.298 1034.82 495.358 1032.45 492.988C1030.13 490.573 1027.28 488.75 1023.91 487.52C1020.58 486.243 1016.84 485.605 1012.7 485.605C1010.51 485.605 1008.25 485.833 1005.93 486.289C1003.65 486.745 1001.39 487.406 999.16 488.271C996.973 489.092 994.854 490.14 992.803 491.416C990.752 492.646 988.883 494.059 987.197 495.654V550H966.963V469.336ZM1079.96 509.668C1079.96 503.88 1081.12 498.457 1083.45 493.398C1085.82 488.34 1089.17 483.919 1093.5 480.137C1097.87 476.354 1103.13 473.369 1109.29 471.182C1115.49 468.994 1122.43 467.9 1130.14 467.9C1137.84 467.9 1144.77 468.994 1150.92 471.182C1157.12 473.369 1162.38 476.354 1166.71 480.137C1171.08 483.919 1174.43 488.34 1176.76 493.398C1179.13 498.457 1180.31 503.88 1180.31 509.668C1180.31 515.456 1179.13 520.879 1176.76 525.938C1174.43 530.996 1171.08 535.417 1166.71 539.199C1162.38 542.982 1157.12 545.967 1150.92 548.154C1144.77 550.342 1137.84 551.436 1130.14 551.436C1122.43 551.436 1115.49 550.342 1109.29 548.154C1103.13 545.967 1097.87 542.982 1093.5 539.199C1089.17 535.417 1085.82 530.996 1083.45 525.938C1081.12 520.879 1079.96 515.456 1079.96 509.668ZM1101.22 509.668C1101.22 512.904 1101.86 515.98 1103.13 518.896C1104.46 521.768 1106.35 524.32 1108.81 526.553C1111.32 528.74 1114.35 530.495 1117.9 531.816C1121.5 533.092 1125.58 533.73 1130.14 533.73C1134.69 533.73 1138.75 533.092 1142.3 531.816C1145.9 530.495 1148.94 528.74 1151.4 526.553C1153.9 524.32 1155.79 521.768 1157.07 518.896C1158.39 515.98 1159.05 512.904 1159.05 509.668C1159.05 506.432 1158.39 503.356 1157.07 500.439C1155.79 497.523 1153.9 494.971 1151.4 492.783C1148.94 490.55 1145.9 488.796 1142.3 487.52C1138.75 486.198 1134.69 485.537 1130.14 485.537C1125.58 485.537 1121.5 486.198 1117.9 487.52C1114.35 488.796 1111.32 490.55 1108.81 492.783C1106.35 494.971 1104.46 497.523 1103.13 500.439C1101.86 503.356 1101.22 506.432 1101.22 509.668ZM1201.3 436.592H1221.53V550H1201.3V436.592ZM1242.66 509.668C1242.66 503.88 1243.82 498.457 1246.14 493.398C1248.51 488.34 1251.86 483.919 1256.19 480.137C1260.57 476.354 1265.83 473.369 1271.98 471.182C1278.18 468.994 1285.13 467.9 1292.83 467.9C1300.53 467.9 1307.46 468.994 1313.61 471.182C1319.81 473.369 1325.07 476.354 1329.4 480.137C1333.78 483.919 1337.13 488.34 1339.45 493.398C1341.82 498.457 1343.01 503.88 1343.01 509.668C1343.01 515.456 1341.82 520.879 1339.45 525.938C1337.13 530.996 1333.78 535.417 1329.4 539.199C1325.07 542.982 1319.81 545.967 1313.61 548.154C1307.46 550.342 1300.53 551.436 1292.83 551.436C1285.13 551.436 1278.18 550.342 1271.98 548.154C1265.83 545.967 1260.57 542.982 1256.19 539.199C1251.86 535.417 1248.51 530.996 1246.14 525.938C1243.82 520.879 1242.66 515.456 1242.66 509.668ZM1263.92 509.668C1263.92 512.904 1264.55 515.98 1265.83 518.896C1267.15 521.768 1269.04 524.32 1271.5 526.553C1274.01 528.74 1277.04 530.495 1280.6 531.816C1284.2 533.092 1288.27 533.73 1292.83 533.73C1297.39 533.73 1301.45 533.092 1305 531.816C1308.6 530.495 1311.63 528.74 1314.09 526.553C1316.6 524.32 1318.49 521.768 1319.77 518.896C1321.09 515.98 1321.75 512.904 1321.75 509.668C1321.75 506.432 1321.09 503.356 1319.77 500.439C1318.49 497.523 1316.6 494.971 1314.09 492.783C1311.63 490.55 1308.6 488.796 1305 487.52C1301.45 486.198 1297.39 485.537 1292.83 485.537C1288.27 485.537 1284.2 486.198 1280.6 487.52C1277.04 488.796 1274.01 490.55 1271.5 492.783C1269.04 494.971 1267.15 497.523 1265.83 500.439C1264.55 503.356 1263.92 506.432 1263.92 509.668ZM1376.09 563.672C1378.65 564.583 1381.24 565.335 1383.89 565.928C1386.53 566.566 1389.08 567.067 1391.54 567.432C1394.05 567.842 1396.44 568.115 1398.72 568.252C1401 568.434 1403.03 568.525 1404.8 568.525C1410.18 568.525 1414.85 567.865 1418.82 566.543C1422.83 565.267 1426.16 563.535 1428.8 561.348C1431.49 559.16 1433.49 556.608 1434.81 553.691C1436.14 550.82 1436.8 547.767 1436.8 544.531V541.045C1435.07 542.23 1433.04 543.369 1430.71 544.463C1428.39 545.557 1425.84 546.514 1423.06 547.334C1420.28 548.154 1417.31 548.815 1414.17 549.316C1411.07 549.818 1407.86 550.068 1404.53 550.068C1397.92 550.068 1391.82 549.089 1386.21 547.129C1380.61 545.124 1375.75 542.344 1371.65 538.789C1367.55 535.189 1364.34 530.882 1362.01 525.869C1359.73 520.856 1358.59 515.296 1358.59 509.189C1358.59 502.946 1359.8 497.295 1362.22 492.236C1364.63 487.132 1367.96 482.78 1372.2 479.18C1376.48 475.579 1381.54 472.799 1387.37 470.84C1393.21 468.88 1399.54 467.9 1406.38 467.9C1409.29 467.9 1412.19 468.083 1415.06 468.447C1417.93 468.812 1420.66 469.313 1423.26 469.951C1425.9 470.589 1428.37 471.364 1430.64 472.275C1432.97 473.141 1435.02 474.098 1436.8 475.146V469.336H1457.03V540.771C1457.03 548.109 1455.91 554.603 1453.68 560.254C1451.45 565.905 1448.17 570.645 1443.84 574.473C1439.55 578.346 1434.22 581.263 1427.84 583.223C1421.46 585.228 1414.15 586.23 1405.9 586.23C1402.94 586.23 1399.86 586.094 1396.67 585.82C1393.48 585.592 1390.27 585.228 1387.03 584.727C1383.84 584.271 1380.67 583.701 1377.53 583.018C1374.43 582.38 1371.45 581.628 1368.57 580.762L1376.09 563.672ZM1379.85 508.984C1379.85 512.22 1380.49 515.273 1381.77 518.145C1383.09 520.97 1384.96 523.454 1387.37 525.596C1389.79 527.692 1392.71 529.355 1396.12 530.586C1399.54 531.771 1403.39 532.363 1407.68 532.363C1410.46 532.363 1413.21 532.113 1415.95 531.611C1418.73 531.064 1421.37 530.312 1423.88 529.355C1426.43 528.398 1428.8 527.236 1430.99 525.869C1433.22 524.502 1435.16 522.975 1436.8 521.289V494.697C1434.75 493.057 1432.58 491.667 1430.3 490.527C1428.02 489.388 1425.7 488.454 1423.33 487.725C1420.96 486.995 1418.57 486.471 1416.15 486.152C1413.74 485.788 1411.39 485.605 1409.11 485.605C1404.46 485.605 1400.32 486.221 1396.67 487.451C1393.07 488.682 1390.02 490.368 1387.51 492.51C1385.05 494.606 1383.16 497.067 1381.84 499.893C1380.51 502.718 1379.85 505.749 1379.85 508.984ZM1490.73 458.33C1488.73 458.33 1486.9 458.057 1485.26 457.51C1483.67 456.917 1482.3 456.143 1481.16 455.186C1480.02 454.183 1479.13 453.044 1478.5 451.768C1477.9 450.446 1477.61 449.056 1477.61 447.598C1477.61 446.094 1477.9 444.704 1478.5 443.428C1479.13 442.106 1480.02 440.967 1481.16 440.01C1482.3 439.053 1483.67 438.301 1485.26 437.754C1486.9 437.161 1488.73 436.865 1490.73 436.865C1492.78 436.865 1494.61 437.161 1496.2 437.754C1497.84 438.301 1499.23 439.053 1500.37 440.01C1501.51 440.967 1502.38 442.106 1502.97 443.428C1503.61 444.704 1503.93 446.094 1503.93 447.598C1503.93 449.056 1503.61 450.446 1502.97 451.768C1502.38 453.044 1501.51 454.183 1500.37 455.186C1499.23 456.143 1497.84 456.917 1496.2 457.51C1494.61 458.057 1492.78 458.33 1490.73 458.33ZM1480.62 469.336H1500.85V550H1480.62V469.336ZM1523 509.395C1523 503.926 1524.11 498.708 1526.35 493.74C1528.58 488.727 1531.79 484.307 1535.99 480.479C1540.18 476.65 1545.31 473.597 1551.37 471.318C1557.47 469.04 1564.4 467.9 1572.15 467.9C1579.85 467.9 1586.78 469.062 1592.93 471.387C1599.13 473.665 1604.37 476.81 1608.65 480.82C1612.98 484.831 1616.29 489.548 1618.56 494.971C1620.89 500.394 1622.05 506.204 1622.05 512.402C1622.05 513.177 1622.03 514.02 1621.98 514.932C1621.98 515.798 1621.94 516.595 1621.85 517.324H1545.56C1546.42 519.74 1547.81 521.95 1549.73 523.955C1551.69 525.96 1554.12 527.692 1557.04 529.15C1559.96 530.609 1563.33 531.748 1567.16 532.568C1570.99 533.343 1575.22 533.73 1579.87 533.73C1584.52 533.73 1589.15 533.252 1593.75 532.295C1598.35 531.292 1602.75 530.039 1606.94 528.535L1613.78 543.984C1611.14 545.215 1608.45 546.309 1605.71 547.266C1603.02 548.177 1600.2 548.952 1597.24 549.59C1594.32 550.182 1591.24 550.638 1588.01 550.957C1584.82 551.276 1581.45 551.436 1577.89 551.436C1568.82 551.436 1560.87 550.342 1554.03 548.154C1547.2 545.967 1541.48 542.982 1536.88 539.199C1532.27 535.417 1528.81 530.973 1526.48 525.869C1524.16 520.765 1523 515.273 1523 509.395ZM1600.59 501.533C1599.86 499.3 1598.72 497.227 1597.17 495.312C1595.66 493.353 1593.77 491.667 1591.49 490.254C1589.22 488.796 1586.57 487.656 1583.56 486.836C1580.56 486.016 1577.25 485.605 1573.65 485.605C1569.82 485.605 1566.34 486.038 1563.19 486.904C1560.05 487.77 1557.29 488.932 1554.92 490.391C1552.55 491.849 1550.57 493.535 1548.97 495.449C1547.43 497.363 1546.29 499.391 1545.56 501.533H1600.59ZM1647.07 525.254C1652.54 528.535 1658.55 530.951 1665.12 532.5C1671.68 534.049 1678.4 534.824 1685.28 534.824C1689.93 534.824 1693.81 534.505 1696.9 533.867C1700 533.229 1702.49 532.409 1704.36 531.406C1706.22 530.404 1707.55 529.264 1708.32 527.988C1709.1 526.712 1709.48 525.413 1709.48 524.092C1709.48 522.178 1708.64 520.537 1706.95 519.17C1705.31 517.803 1702.58 517.119 1698.75 517.119C1696.97 517.119 1695.06 517.233 1693.01 517.461C1690.96 517.689 1688.79 517.939 1686.51 518.213C1684.28 518.441 1681.93 518.669 1679.47 518.896C1677.06 519.124 1674.6 519.238 1672.09 519.238C1666.62 519.238 1661.95 518.646 1658.08 517.461C1654.25 516.276 1651.13 514.658 1648.71 512.607C1646.3 510.557 1644.54 508.141 1643.45 505.361C1642.35 502.536 1641.81 499.505 1641.81 496.27C1641.81 492.168 1642.76 488.385 1644.68 484.922C1646.59 481.458 1649.33 478.473 1652.88 475.967C1656.44 473.415 1660.72 471.432 1665.73 470.02C1670.79 468.607 1676.42 467.9 1682.62 467.9C1685.85 467.9 1689.23 468.105 1692.73 468.516C1696.29 468.88 1699.78 469.382 1703.19 470.02C1706.61 470.658 1709.89 471.41 1713.04 472.275C1716.18 473.096 1718.96 473.984 1721.38 474.941L1715.02 490.664C1709.87 488.75 1704.72 487.246 1699.57 486.152C1694.47 485.013 1689.2 484.443 1683.78 484.443C1680 484.443 1676.78 484.74 1674.14 485.332C1671.54 485.879 1669.42 486.631 1667.78 487.588C1666.14 488.499 1664.93 489.57 1664.16 490.801C1663.43 491.986 1663.07 493.239 1663.07 494.561C1663.07 495.518 1663.25 496.383 1663.61 497.158C1664.02 497.933 1664.66 498.617 1665.53 499.209C1666.44 499.756 1667.6 500.189 1669.01 500.508C1670.47 500.781 1672.25 500.918 1674.35 500.918C1676.26 500.918 1678.29 500.804 1680.43 500.576C1682.57 500.348 1684.8 500.12 1687.13 499.893C1689.45 499.619 1691.85 499.368 1694.31 499.141C1696.81 498.913 1699.37 498.799 1701.96 498.799C1706.79 498.799 1711.01 499.368 1714.61 500.508C1718.26 501.647 1721.26 503.242 1723.63 505.293C1726 507.344 1727.78 509.759 1728.96 512.539C1730.15 515.319 1730.74 518.35 1730.74 521.631C1730.74 525.869 1729.76 529.811 1727.8 533.457C1725.84 537.103 1722.93 540.27 1719.05 542.959C1715.18 545.602 1710.35 547.676 1704.56 549.18C1698.82 550.684 1692.16 551.436 1684.6 551.436C1679.95 551.436 1675.46 551.139 1671.13 550.547C1666.8 550 1662.68 549.248 1658.76 548.291C1654.84 547.288 1651.15 546.126 1647.69 544.805C1644.27 543.483 1641.15 542.07 1638.32 540.566L1647.07 525.254Z" fill="url(#paint9_linear_9_17)"/>
<defs>
<radialGradient id="paint0_radial_9_17" cx="0" cy="0" r="1" gradientUnits="userSpaceOnUse" gradientTransform="translate(188.182 240.682) scale(188.182 240.682)">
<stop stop-color="#6454F3"/>
<stop offset="1" stop-color="#B718A6"/>
</radialGradient>
<radialGradient id="paint1_radial_9_17" cx="0" cy="0" r="1" gradientUnits="userSpaceOnUse" gradientTransform="translate(291.818 467.727) scale(188.182 240)">
<stop stop-color="#6454F3"/>
<stop offset="1" stop-color="#B718A6"/>
</radialGradient>
<linearGradient id="paint2_linear_9_17" x1="1347.85" y1="264.494" x2="1516" y2="264.494" gradientUnits="userSpaceOnUse">
<stop offset="0.00446719" stop-color="#B718A6"/>
<stop offset="1" stop-color="#6E54F3"/>
</linearGradient>
<linearGradient id="paint3_linear_9_17" x1="1347.85" y1="264.494" x2="1516" y2="264.494" gradientUnits="userSpaceOnUse">
<stop offset="0.00446719" stop-color="#B718A6"/>
<stop offset="1" stop-color="#6E54F3"/>
</linearGradient>
<linearGradient id="paint4_linear_9_17" x1="1347.85" y1="264.494" x2="1516" y2="264.494" gradientUnits="userSpaceOnUse">
<stop offset="0.00446719" stop-color="#B718A6"/>
<stop offset="1" stop-color="#6E54F3"/>
</linearGradient>
<linearGradient id="paint5_linear_9_17" x1="1347.85" y1="264.494" x2="1516" y2="264.494" gradientUnits="userSpaceOnUse">
<stop offset="0.00446719" stop-color="#B718A6"/>
<stop offset="1" stop-color="#6E54F3"/>
</linearGradient>
<linearGradient id="paint6_linear_9_17" x1="1347.85" y1="264.494" x2="1516" y2="264.494" gradientUnits="userSpaceOnUse">
<stop offset="0.00446719" stop-color="#B718A6"/>
<stop offset="1" stop-color="#6E54F3"/>
</linearGradient>
<linearGradient id="paint7_linear_9_17" x1="1347.85" y1="264.494" x2="1516" y2="264.494" gradientUnits="userSpaceOnUse">
<stop offset="0.00446719" stop-color="#B718A6"/>
<stop offset="1" stop-color="#6E54F3"/>
</linearGradient>
<linearGradient id="paint8_linear_9_17" x1="1347.85" y1="264.494" x2="1516" y2="264.494" gradientUnits="userSpaceOnUse">
<stop offset="0.00446719" stop-color="#B718A6"/>
<stop offset="1" stop-color="#6E54F3"/>
</linearGradient>
<linearGradient id="paint9_linear_9_17" x1="500" y1="498.5" x2="1737" y2="498.5" gradientUnits="userSpaceOnUse">
<stop stop-color="#6E54F3"/>
<stop offset="1" stop-color="#B718A6"/>
</linearGradient>
</defs>
</svg>
