<?xml version="1.0" encoding="UTF-8"?>
<svg version="1.1" xmlns="http://www.w3.org/2000/svg" width="1920" height="479">
<path d="M0 0 C0.24795102 5.3015742 0.42896602 10.59975406 0.54931641 15.90576172 C0.5994898 17.70844305 0.66765232 19.51071965 0.75439453 21.31201172 C1.46146937 36.37686513 1.46146937 36.37686513 -2.14746094 40.38500977 C-4.71315313 41.8565097 -7.24911669 42.92864412 -10 44 C-12.25334885 46.23367585 -12.25334885 46.23367585 -13.5 48.6875 C-14.16515625 49.80705078 -14.16515625 49.80705078 -14.84375 50.94921875 C-16.54498568 55.43795208 -17.14129531 60.27712418 -18 65 C2.79 65 23.58 65 45 65 C45.04898437 70.17945313 45.09796875 75.35890625 45.1484375 80.6953125 C45.18388091 84.00392415 45.2198733 87.31251206 45.2578125 90.62109375 C45.31779591 95.8565709 45.37589876 101.09201537 45.421875 106.32763672 C45.45912822 110.55529097 45.50558815 114.78275838 45.55806351 119.01025009 C45.57639741 120.61189322 45.59158009 122.21357606 45.60334396 123.81528091 C45.73425018 141.04481458 46.16057445 160.29124709 58.55859375 173.68359375 C67.60717948 182.06346183 79.17164741 184.29671971 91.19482422 183.97851562 C103.97197584 183.37185132 116.38032572 180.42634565 127 173 C127.72696075 172.6224054 128.45392151 172.24481079 129.20291138 171.85577393 C132.83442902 169.49551574 135.46229064 167.20858458 136.52229118 162.85474396 C137.38543631 156.05170968 137.17898224 149.18669861 137.09765625 142.34375 C137.10331237 140.11314588 137.11292722 137.88254858 137.12632751 135.65197754 C137.1509023 129.79894786 137.12188572 123.94737666 137.08154297 118.09448242 C137.04986478 112.11502112 137.06909423 106.13574459 137.08398438 100.15625 C137.10569251 88.43698258 137.06605427 76.71910172 137 65 C149.87 65 162.74 65 176 65 C176.09059368 84.76823855 176.16415177 104.53630679 176.20724869 124.30470085 C176.22779882 133.48527377 176.25577345 142.66570773 176.30175781 151.84619141 C176.34185846 159.85590598 176.36748753 167.86551982 176.37635398 175.875332 C176.38152978 180.10924396 176.39353346 184.34286798 176.42292023 188.57668686 C176.61957332 218.07675953 175.01126231 243.93571481 153.8125 266.6875 C132.03599039 287.49781635 100.98683544 289.75536538 72.45458984 289.13183594 C52.96181594 288.38794209 34.30591062 283.52639543 16.25 276.3125 C15.5283667 276.02729492 14.8067334 275.74208984 14.06323242 275.44824219 C12.078125 274.61328125 12.078125 274.61328125 9 273 C7.62516273 268.87548819 8.91007287 267.37907689 10.7109375 263.46875 C10.99852936 262.83642456 11.28612122 262.20409912 11.58242798 261.5526123 C12.50418632 259.53076321 13.43914409 257.51535706 14.375 255.5 C15.30084405 253.48342897 16.2239755 251.46563972 17.14614868 249.4473877 C17.98530738 247.61453222 18.83112054 245.78472783 19.67724609 243.95507812 C21.04469149 241.03085999 21.04469149 241.03085999 22 238 C25.58602837 239.36088487 28.87985978 240.9878098 32.25 242.8125 C54.40688195 253.95907407 83.52893813 257.31232542 107.39453125 250.25390625 C118.07683317 246.53882617 126.22584582 241.22830527 131.56640625 231 C135.25934158 222.58305337 136.1855406 215.09148963 136 206 C134.51113281 206.79664063 134.51113281 206.79664063 132.9921875 207.609375 C109.23906293 220.06298394 80.34575307 224.7275398 54.11328125 217.3828125 C36.03618467 211.621838 22.87785662 200.79052609 14 184 C5.01311782 165.4645555 5.59669061 146.18896529 5.79400635 126.08764648 C5.82513139 122.57411164 5.83848873 119.06050903 5.85351562 115.546875 C5.88533872 108.6977373 5.93793953 101.84892996 6 95 C-1.92 95 -9.84 95 -18 95 C-18 136.25 -18 177.5 -18 220 C-31.2 220 -44.4 220 -58 220 C-58 178.75 -58 137.5 -58 95 C-66.58 95 -75.16 95 -84 95 C-84 85.1 -84 75.2 -84 65 C-75.42 65 -66.84 65 -58 65 C-58 62.03 -58 59.06 -58 56 C-56.27506495 38.44519222 -49.22215595 23.53320271 -35.6640625 12.015625 C-25.52201675 4.33524084 -12.72763632 -0.08816704 0 0 Z " fill="#3300B7" transform="translate(1714,96)"/>
<path d="M0 0 C0.71993134 -0.00067474 1.43986267 -0.00134949 2.18161011 -0.00204468 C34.63914025 0.04581261 73.43047978 4.44413388 102.4375 20.25 C102.7675 20.91 103.0975 21.57 103.4375 22.25 C102.4029308 24.54299925 101.31195414 26.70121274 100.10546875 28.90234375 C99.75366043 29.55828018 99.40185211 30.21421661 99.03938293 30.89002991 C97.90870091 32.9932976 96.76682946 35.09026712 95.625 37.1875 C94.86583605 38.59793052 94.10736365 40.0087335 93.34960938 41.41992188 C87.83874627 51.64813059 87.83874627 51.64813059 85.4375 55.25 C81.99171959 54.62823967 78.80272538 53.75738382 75.5078125 52.578125 C65.2335294 48.97859269 55.02616312 45.6731912 44.375 43.375 C43.4979541 43.18454102 42.6209082 42.99408203 41.71728516 42.79785156 C28.5677642 40.09512527 15.71308746 38.89719685 2.32177734 38.93432617 C-0.06068305 38.93749758 -2.44190934 38.91386985 -4.82421875 38.88867188 C-20.59567546 38.82311695 -38.25045091 40.62075586 -51.15625 50.6796875 C-54.5805077 54.50344193 -56.30836676 59.35599294 -56.75390625 64.4296875 C-56.41725133 69.67334294 -54.25288927 73.66009163 -50.5625 77.25 C-42.69852474 82.64388047 -33.71384799 83.60664123 -24.43359375 83.53125 C-23.47617783 83.52685913 -22.5187619 83.52246826 -21.53233337 83.51794434 C-12.07886885 83.38693003 -2.80605477 82.32997779 6.55911255 81.11129761 C38.85805887 76.96712202 74.85425286 72.69043696 103.3125 92 C114.54822546 100.70768723 121.14048948 112.29700315 123.4375 126.25 C125.19671916 144.97811121 121.74127083 161.28800893 110.03125 176.34375 C103.58727407 184.04552999 96.19150158 189.42689775 87.4375 194.25 C86.30957031 194.87648438 85.18164062 195.50296875 84.01953125 196.1484375 C39.25311147 218.90428684 -22.66069839 213.86435268 -68.97119141 199.04077148 C-83.85303068 194.1244312 -98.38917384 188.8949953 -111.5625 180.25 C-105.38838946 168.25922742 -97.35946902 157.22255575 -89.5625 146.25 C-85.05153972 146.85773848 -81.46524077 148.7082115 -77.5 150.8125 C-50.16594909 164.76290291 -21.52737824 171.6419213 9.15234375 171.56567383 C11.80250188 171.56251193 14.451541 171.58608282 17.1015625 171.61132812 C35.18578749 171.67885987 58.48660854 170.28267992 72.4375 157.25 C76.93501832 151.61455535 78.83187624 145.4415668 78.4375 138.25 C77.31774427 132.63157652 74.94631221 128.85704977 70.4375 125.25 C61.38600617 119.67536754 52.29955554 118.83485327 41.875 118.8125 C40.63355225 118.80935791 39.39210449 118.80621582 38.11303711 118.80297852 C25.4146709 118.95737302 12.99434394 120.65491036 0.4309082 122.38525391 C-26.53593754 126.09340395 -55.6852312 128.55262443 -79.2421875 112.01953125 C-80.00789063 111.43558594 -80.77359375 110.85164063 -81.5625 110.25 C-82.64917969 109.45142578 -82.64917969 109.45142578 -83.7578125 108.63671875 C-93.6199337 100.7807705 -99.63059755 88.60688546 -101.5625 76.25 C-102.54958284 59.08994453 -99.86248287 43.2630839 -88.1875 29.9375 C-86.66732147 28.35408609 -85.12664449 26.78999818 -83.5625 25.25 C-82.92441406 24.61320312 -82.28632813 23.97640625 -81.62890625 23.3203125 C-60.31373837 3.37888725 -27.81498872 0.02366346 0 0 Z " fill="#3300B7" transform="translate(512.5625,108.75)"/>
<path d="M0 0 C0 11.88 0 23.76 0 36 C-3.96 37.65 -7.92 39.3 -12 41 C-21.14272857 47.28562589 -22.62783319 54.32524935 -25 65 C-8.83 65 7.34 65 24 65 C24 49.49 24 33.98 24 18 C37.2 18 50.4 18 64 18 C64 33.51 64 49.02 64 65 C76.21 65 88.42 65 101 65 C101 74.9 101 84.8 101 95 C88.79 95 76.58 95 64 95 C64 136.25 64 177.5 64 220 C50.8 220 37.6 220 24 220 C24 178.75 24 137.5 24 95 C7.83 95 -8.34 95 -25 95 C-25 136.25 -25 177.5 -25 220 C-38.2 220 -51.4 220 -65 220 C-65 178.75 -65 137.5 -65 95 C-73.58 95 -82.16 95 -91 95 C-91 85.1 -91 75.2 -91 65 C-82.42 65 -73.84 65 -65 65 C-64.9175 62.999375 -64.835 60.99875 -64.75 58.9375 C-63.49418353 41.68746537 -57.76425254 25.32684097 -44.42578125 13.76953125 C-30.71728631 3.34638175 -17.1239982 0 0 0 Z " fill="#3300B7" transform="translate(938,96)"/>
<path d="M0 0 C1.02430618 0.00273422 1.02430618 0.00273422 2.06930542 0.00552368 C29.29740439 0.12788731 53.66695412 8.25476252 73.9375 27 C92.33108747 46.2366269 95.75 69.28597345 95.75 95.3125 C24.47 95.8075 24.47 95.8075 -48.25 96.3125 C-38.79473136 111.44092983 -27.65007551 117.62969779 -10.7109375 122.28515625 C14.80876123 128.06066702 39.38950123 123.28501169 63.86499023 115.81567383 C65.75 115.3125 65.75 115.3125 67.75 115.3125 C69.49466026 119.05835457 71.22130397 122.81194179 72.93188477 126.57348633 C73.51589056 127.85111031 74.1047151 129.12654331 74.69848633 130.3996582 C75.55261799 132.23321325 76.38787527 134.07552317 77.22265625 135.91796875 C77.73062744 137.02293701 78.23859863 138.12790527 78.76196289 139.26635742 C79.8271557 142.5503729 80.02736553 144.11679952 78.75 147.3125 C77.16210938 148.45922852 77.16210938 148.45922852 75.09375 149.19140625 C73.94410767 149.61063354 73.94410767 149.61063354 72.77124023 150.03833008 C71.93923096 150.31443115 71.10722168 150.59053223 70.25 150.875 C69.392854 151.17237061 68.53570801 151.46974121 67.65258789 151.77612305 C30.93565237 164.19334458 -14.32747488 165.89898386 -49.6875 148.4375 C-55.91263978 145.2290604 -61.7441849 141.65919613 -67.25 137.3125 C-68.00539063 136.73242188 -68.76078125 136.15234375 -69.5390625 135.5546875 C-82.47063431 124.93391202 -90.15865721 109.56140078 -93.25 93.3125 C-93.66087034 89.03105935 -93.7285259 84.79906603 -93.6875 80.5 C-93.67847656 79.36071045 -93.66945313 78.2214209 -93.66015625 77.04760742 C-93.22833064 55.97961577 -84.61537749 38.40349781 -69.609375 23.73046875 C-50.09336131 6.37401395 -25.67336018 -0.10855211 0 0 Z M-41.125 50.75 C-46.9236367 56.67796355 -46.9236367 56.67796355 -49.25 64.3125 C-15.26 64.3125 18.73 64.3125 53.75 64.3125 C48.61213736 52.32415383 41.80582432 44.72631389 29.6875 39.5 C27.71791915 38.74532392 25.73942478 38.01319519 23.75 37.3125 C23.08484375 37.07660156 22.4196875 36.84070313 21.734375 36.59765625 C0.57725992 30.29651546 -25.18291467 35.45808128 -41.125 50.75 Z " fill="#3300B7" transform="translate(1142.25,158.6875)"/>
<path d="M0 0 C3.77045058 4.13829941 5.34196981 7.75421823 5.9375 13.3125 C5.3684469 18.6236623 3.69424032 22.34789488 0.4375 26.5625 C-4.18399912 30.17932539 -9.13395665 31.27080529 -14.79296875 32.6015625 C-24.85735348 35.0407706 -33.38346055 38.82092546 -42.4375 43.8125 C-43.283125 44.27833496 -44.12875 44.74416992 -45 45.22412109 C-56.80234679 51.76331647 -68.4614338 58.55042262 -80.10351562 65.36962891 C-87.85165505 69.90351281 -95.637565 74.36865018 -103.4375 78.8125 C-113.15884099 84.35218899 -122.84645092 89.94625063 -132.50439453 95.59594727 C-139.75962046 99.8386746 -147.0313114 104.05199413 -154.3125 108.25 C-155.37984375 108.86617188 -156.4471875 109.48234375 -157.546875 110.1171875 C-162.61872807 113.04325658 -167.69434417 115.96228024 -172.78256226 118.85978699 C-174.56320843 119.87431375 -176.34258187 120.89103736 -178.12158203 121.90844727 C-180.34920789 123.18157954 -182.57920622 124.45057335 -184.81201172 125.71459961 C-197.80976004 132.77015248 -197.80976004 132.77015248 -205.4375 144.8125 C-205.85971927 150.3013505 -205.14814613 154.00328913 -202.4375 158.8125 C-200.33448062 161.16442747 -198.2339272 163.32107216 -195.4375 164.8125 C-191.08053668 164.06006113 -187.48714985 161.77587918 -183.6875 159.625 C-182.90310547 159.18502686 -182.11871094 158.74505371 -181.31054688 158.29174805 C-172.74251637 153.46266092 -164.26006759 148.48581345 -155.7734375 143.515625 C-149.38468008 139.77615411 -142.97633924 136.07124966 -136.5625 132.375 C-135.48291016 131.75278564 -134.40332031 131.13057129 -133.29101562 130.48950195 C-131.1006748 129.22738483 -128.91024498 127.96542215 -126.71972656 126.70361328 C-120.21815401 122.95761648 -113.71910569 119.2072381 -107.22094727 115.45532227 C-102.21026444 112.56286587 -97.1980312 109.67323806 -92.17886353 106.79553223 C-90.42021251 105.78701686 -88.66216791 104.7774523 -86.90429688 103.76757812 C-84.71277769 102.50899482 -82.52015496 101.25233013 -80.32617188 99.99804688 C-67.46627695 92.60587863 -55.91342091 85.30593887 -46.1875 73.9375 C-42.46049482 69.6918261 -39.66701896 67.19533052 -33.8671875 66.5078125 C-27.48357954 66.21211404 -23.50961146 66.8790258 -18.4375 70.8125 C-14.69681343 75.63601689 -13.06546704 79.45920056 -13.15625 85.62109375 C-13.78986151 90.55798343 -16.04048103 94.39423359 -19.4921875 97.8984375 C-23.44953995 100.47019174 -27.30083302 101.21486686 -31.875 102.1875 C-48.8006753 106.17295906 -62.35331939 114.06104137 -77.19042969 122.890625 C-82.53824068 126.05588576 -87.92565602 129.15179331 -93.3125 132.25 C-95.4974568 133.50900878 -97.68235239 134.76812381 -99.8671875 136.02734375 C-100.95225586 136.65237793 -102.03732422 137.27741211 -103.15527344 137.92138672 C-108.5840994 141.04930147 -114.01070669 144.18106046 -119.4375 147.3125 C-125.51466164 150.81894483 -131.59190473 154.32524701 -137.67034912 157.82946777 C-139.42091241 158.83869104 -141.17140411 159.84803836 -142.921875 160.85742188 C-145.10142165 162.1141766 -147.28109832 163.37070586 -149.4609375 164.62695312 C-150.46125 165.20380859 -151.4615625 165.78066406 -152.4921875 166.375 C-153.46381836 166.93445313 -154.43544922 167.49390625 -155.43652344 168.0703125 C-157.56103665 169.3036778 -159.67819131 170.54975904 -161.79003906 171.8046875 C-162.8725293 172.44664062 -163.95501953 173.08859375 -165.0703125 173.75 C-166.0514502 174.33652344 -167.03258789 174.92304688 -168.04345703 175.52734375 C-170.4375 176.8125 -170.4375 176.8125 -172.4375 176.8125 C-170.17536526 179.28740306 -167.88495997 180.83745856 -164.95703125 182.45703125 C-164.05315674 182.96145752 -163.14928223 183.46588379 -162.21801758 183.9855957 C-161.23857178 184.52659912 -160.25912598 185.06760254 -159.25 185.625 C-157.14502748 186.80064163 -155.04088538 187.97777112 -152.9375 189.15625 C-151.31521484 190.06503906 -151.31521484 190.06503906 -149.66015625 190.9921875 C-144.65908597 193.81703447 -139.70386702 196.71840493 -134.75 199.625 C-126.01162684 204.74526936 -117.23727017 209.79882617 -108.4375 214.8125 C-98.68936727 220.36822426 -88.96373394 225.9601701 -79.28710938 231.63989258 C-74.0818605 234.69486122 -68.86023486 237.71537543 -63.609375 240.69140625 C-62.49336914 241.32868652 -61.37736328 241.9659668 -60.22753906 242.62255859 C-58.07315111 243.85194738 -55.91379455 245.07267933 -53.74902344 246.28369141 C-52.31091309 247.10812744 -52.31091309 247.10812744 -50.84375 247.94921875 C-49.99103516 248.43092529 -49.13832031 248.91263184 -48.25976562 249.40893555 C-47.65841797 249.87211182 -47.05707031 250.33528809 -46.4375 250.8125 C-46.4375 251.8025 -46.4375 252.7925 -46.4375 253.8125 C-47.50556885 254.42170288 -47.50556885 254.42170288 -48.59521484 255.04321289 C-61.82540207 262.59138064 -75.04904206 270.1508093 -88.25 277.75 C-89.32652832 278.36681641 -90.40305664 278.98363281 -91.51220703 279.61914062 C-96.12505997 282.27222868 -100.70494111 284.94539065 -105.18359375 287.8203125 C-105.87412842 288.25867432 -106.56466309 288.69703613 -107.27612305 289.14868164 C-109.02383898 290.2699969 -110.75504672 291.41693568 -112.484375 292.56640625 C-115.4375 293.8125 -115.4375 293.8125 -118.15625 293.4140625 C-122.98254387 291.05837144 -127.57702388 288.3756658 -132.1875 285.625 C-134.35117549 284.34830222 -136.51525166 283.07228329 -138.6796875 281.796875 C-140.35369629 280.8078418 -140.35369629 280.8078418 -142.06152344 279.79882812 C-147.45876448 276.62324574 -152.88519811 273.49883724 -158.3125 270.375 C-159.38314697 269.75778076 -160.45379395 269.14056152 -161.55688477 268.50463867 C-167.14665657 265.28226032 -172.73878096 262.06399233 -178.33203125 258.84765625 C-197.98864214 247.53900698 -197.98864214 247.53900698 -206.1875 242.6875 C-207.27546875 242.04554688 -208.3634375 241.40359375 -209.484375 240.7421875 C-214.52864207 237.44606589 -218.63233219 234.18797039 -221.6875 228.875 C-222.16703125 228.06160156 -222.6465625 227.24820313 -223.140625 226.41015625 C-227.14753715 218.38426295 -227.71169861 209.62267325 -226.4375 200.8125 C-224.51776406 195.27706508 -221.669319 190.6602285 -218.4375 185.8125 C-217.7775 185.8125 -217.1175 185.8125 -216.4375 185.8125 C-216.6025 186.59625 -216.7675 187.38 -216.9375 188.1875 C-218.10694785 196.66599693 -217.96774286 203.33163843 -213.4375 210.8125 C-206.97555294 218.75146353 -196.69423758 223.46132967 -187.875 228.3125 C-178.37184109 233.58672862 -168.94493617 238.97256322 -159.56835938 244.46826172 C-151.85486652 248.98895758 -144.12091892 253.47269051 -136.375 257.9375 C-134.74220093 258.87903931 -134.74220093 258.87903931 -133.07641602 259.83959961 C-131.06939712 260.9962535 -129.05958013 262.14807213 -127.04638672 263.29394531 C-125.4475034 264.22460732 -123.86557187 265.18623521 -122.31689453 266.19824219 C-120.35427213 267.52006564 -120.35427213 267.52006564 -117.4375 268.8125 C-113.56989995 267.63948299 -110.20951171 265.62468075 -106.734375 263.58984375 C-105.6721875 262.96916016 -104.61 262.34847656 -103.515625 261.70898438 C-102.41734375 261.06251953 -101.3190625 260.41605469 -100.1875 259.75 C-99.07375 259.09966797 -97.96 258.44933594 -96.8125 257.77929688 C-91.85434431 255.16684726 -91.85434431 255.16684726 -87.4375 251.8125 C-88.50556885 251.20329712 -88.50556885 251.20329712 -89.59521484 250.58178711 C-105.82795455 241.32058466 -122.03809805 232.0217014 -138.21972656 222.67138672 C-142.54054455 220.17527836 -146.86286522 217.6817791 -151.18530273 215.18847656 C-153.34637006 213.94190038 -155.50734076 212.69515669 -157.66821289 211.44824219 C-163.19547912 208.25880888 -168.72380861 205.07124051 -174.25390625 201.88671875 C-179.68449992 198.7594216 -185.11025297 195.62383847 -190.53466797 192.48583984 C-193.20650124 190.94565942 -195.88510805 189.41815261 -198.56640625 187.89453125 C-210.82024262 180.89289196 -220.75930572 174.44399305 -225.578125 160.515625 C-228.29673564 148.8008846 -227.2529002 136.7317258 -220.96484375 126.390625 C-214.30245643 117.00343152 -203.92919769 111.7687757 -194.09075928 106.24801636 C-190.99217339 104.5089902 -187.90322399 102.75294756 -184.8125 101 C-184.18761688 100.64622787 -183.56273376 100.29245575 -182.91891479 99.92796326 C-177.02055658 96.58570771 -171.16225297 93.17656384 -165.3125 89.75 C-153.80920972 83.01967679 -142.2682605 76.35593926 -130.71972656 69.70361328 C-125.29090058 66.57569852 -119.86430719 63.44391552 -114.4375 60.3125 C-112.27084417 59.06248121 -110.1041775 57.81248122 -107.9375 56.5625 C-106.865 55.94375 -105.7925 55.325 -104.6875 54.6875 C-94.9375 49.0625 -94.9375 49.0625 -91.68359375 47.18554688 C-89.52960055 45.9426591 -87.37595128 44.69917507 -85.22265625 43.45507812 C-80.2057553 40.55743776 -75.18592786 37.66537118 -70.15307617 34.79553223 C-68.38634176 33.78771977 -66.62074498 32.7779422 -64.85546875 31.76757812 C-62.65196291 30.50717279 -60.44638309 29.25038302 -58.23828125 27.99804688 C-46.16609398 21.08088452 -34.62402299 13.42417633 -25.875 2.4375 C-19.15779928 -5.4096971 -8.31282012 -6.19346252 0 0 Z M-16.1875 8.9375 C-18.02993126 11.70114689 -17.91035472 13.57006763 -17.4375 16.8125 C-15.86054368 18.8910608 -15.86054368 18.8910608 -13.4375 19.8125 C-10.80212492 19.81885246 -10.80212492 19.81885246 -8.4375 18.8125 C-6.28987816 15.59106724 -5.876432 14.5529533 -6.4375 10.8125 C-8.11066312 8.89095307 -8.11066312 8.89095307 -10.4375 7.8125 C-14.22345012 7.45199494 -14.22345012 7.45199494 -16.1875 8.9375 Z M-34.625 78.9375 C-36.71835041 80.74822823 -36.71835041 80.74822823 -36.9375 83.8125 C-36.70002034 86.85265703 -36.70002034 86.85265703 -34.75 88.75 C-31.82300346 90.09483625 -30.45165011 89.84365662 -27.4375 88.8125 C-25.14819764 86.93111241 -25.14819764 86.93111241 -25.0625 83.875 C-25.13292599 80.75080843 -25.13292599 80.75080843 -27.25 78.9375 C-30.17313463 77.43417362 -31.70186537 77.43417362 -34.625 78.9375 Z " fill="#3300B7" transform="translate(256.4375,25.1875)"/>
<path d="M0 0 C1.83663347 0.94451621 3.64650115 1.94246338 5.4296875 2.984375 C6.4594873 3.58241943 7.48928711 4.18046387 8.55029297 4.79663086 C9.64744629 5.44124268 10.74459961 6.08585449 11.875 6.75 C13.03892834 7.4283255 14.20315883 8.10613277 15.36767578 8.78344727 C18.34667457 10.51783579 21.32193544 12.25851941 24.29589844 14.00152588 C27.85502016 16.08690096 31.41760151 18.16635969 34.97973633 20.24658203 C36.91752046 21.37830417 38.8548545 22.51079731 40.79174805 23.64404297 C46.26785957 26.84283035 51.75903151 30.01329345 57.26953125 33.15234375 C57.88739502 33.50443405 58.50525879 33.85652435 59.1418457 34.21928406 C62.13340208 35.92314311 65.12673564 37.62371289 68.12255859 39.32006836 C100.19118812 57.54783408 100.19118812 57.54783408 104.52734375 72.42578125 C106.41185666 82.6893681 105.63838862 93.23294578 99.62109375 102.01171875 C98.25 103.6875 98.25 103.6875 96 106 C95 103 95 103 95.4375 101.3125 C97.25481421 93.84131936 95.52192169 87.66338887 92 81 C89.29605242 77.22668185 86.80548067 74.98680978 82.765625 72.72265625 C81.72937988 72.13427979 80.69313477 71.54590332 79.62548828 70.93969727 C78.51157715 70.32022217 77.39766602 69.70074707 76.25 69.0625 C75.07600964 68.3995067 73.90267956 67.73534298 72.72998047 67.07006836 C70.32227071 65.70466598 67.91231047 64.34336517 65.50097656 62.984375 C60.34157844 60.06885399 55.23528224 57.06298914 50.125 54.0625 C37.92869077 46.92775092 25.68130325 39.87728089 13.37011719 32.94238281 C10.96668809 31.55715521 8.61209415 30.14535939 6.26269531 28.67480469 C5.64053131 28.29480316 5.01836731 27.91480164 4.37734985 27.52328491 C2.63604623 26.45778181 0.90673649 25.37274957 -0.82177734 24.28662109 C-3.91760125 22.69848663 -3.91760125 22.69848663 -7.04394531 23.58398438 C-10.06262762 25.03000002 -12.95445855 26.55371205 -15.8359375 28.2578125 C-16.89941406 28.88300781 -17.96289062 29.50820312 -19.05859375 30.15234375 C-20.15300781 30.80332031 -21.24742187 31.45429688 -22.375 32.125 C-23.49261719 32.78371094 -24.61023438 33.44242188 -25.76171875 34.12109375 C-28.51083725 35.74236876 -31.25676282 37.36880013 -34 39 C-31.04996214 41.30552433 -28.01454714 43.22399315 -24.765625 45.08203125 C-23.21125732 45.97426392 -23.21125732 45.97426392 -21.62548828 46.88452148 C-20.51157715 47.52075439 -19.39766602 48.1569873 -18.25 48.8125 C-15.8768958 50.1732462 -13.50487643 51.53587891 -11.1328125 52.8984375 C-10.53157562 53.24347824 -9.93033875 53.58851898 -9.31088257 53.9440155 C-3.56411395 57.2442384 2.1565217 60.58853291 7.875 63.9375 C16.55234976 69.01321646 25.26613393 74.02245895 34 79 C44.88586872 85.20457364 55.73534096 91.46844828 66.54296875 97.80859375 C70.01251979 99.84381205 73.49261757 101.85764438 76.98828125 103.84765625 C88.97094065 110.69777902 98.96129417 116.99709111 103.8125 130.5625 C107.11071457 142.88341651 105.30958635 154.27246585 99.1875 165.25 C93.44503228 172.46910228 87.21822819 177.00938274 79.1875 181.5 C78.13997559 182.09820557 77.09245117 182.69641113 76.01318359 183.31274414 C73.79785867 184.5775405 71.58002975 185.83795997 69.35986328 187.09423828 C65.00855497 189.56236157 60.67867876 192.06666495 56.34887695 194.57226562 C53.09150603 196.45687856 49.83134824 198.33658021 46.5703125 200.21484375 C40.04513757 203.97355381 33.5223655 207.7364175 27 211.5 C24.83334417 212.75001879 22.6666775 214.00001878 20.5 215.25 C19.4275 215.86875 18.355 216.4875 17.25 217.125 C-18.5 237.75 -18.5 237.75 -21.75244141 239.6262207 C-23.91118703 240.87177571 -26.06971701 242.11770454 -28.22802734 243.36401367 C-33.76414426 246.56017844 -39.30427343 249.74904106 -44.8515625 252.92578125 C-71.66713203 267.62276042 -71.66713203 267.62276042 -94.25 287.875 C-97.97700518 292.1206739 -100.77048104 294.61716948 -106.5703125 295.3046875 C-112.95392046 295.60038596 -116.92788854 294.9334742 -122 291 C-125.74068657 286.17648311 -127.37203296 282.35329944 -127.28125 276.19140625 C-126.64164121 271.20778775 -124.38765039 267.3453743 -120.8203125 263.88671875 C-117.52120885 261.67970065 -114.38832952 260.84565217 -110.5625 260.0625 C-97.57084691 257.24392743 -86.16546807 252.39953866 -74.75 245.625 C-73.53614863 244.91633699 -72.32161443 244.20884245 -71.10644531 243.50244141 C-68.61711311 242.05345456 -66.13138771 240.59856634 -63.6484375 239.13867188 C-59.11011735 236.47328062 -54.54572669 233.85364831 -49.98193359 231.23217773 C-40.6726172 225.88273146 -31.39309151 220.48296651 -22.125 215.0625 C-12.85494485 209.64088505 -3.5416835 204.29795143 5.78845215 198.98077393 C14.90200454 193.7857187 23.98141536 188.53496455 33.03393555 183.23413086 C38.3064739 180.14846509 43.58836545 177.0801932 48.88671875 174.0390625 C49.46599121 173.70626785 50.04526367 173.37347321 50.64208984 173.03059387 C53.42971028 171.42930529 56.21869518 169.83049923 59.01025391 168.23608398 C73.10427254 161.27178618 73.10427254 161.27178618 83 150 C84.40809881 144.64722723 84.38246509 139.97060833 82.1484375 134.8671875 C80.11611302 131.56293206 77.51016348 128.71210015 74 127 C69.83319225 127.45662413 66.82993564 129.02000082 63.23046875 131.10546875 C62.10688965 131.75201416 60.98331055 132.39855957 59.82568359 133.06469727 C58.61285954 133.77213329 57.40013416 134.47973851 56.1875 135.1875 C54.92562747 135.91716408 53.66341571 136.64624177 52.40087891 137.37475586 C48.59512132 139.5738255 44.79714354 141.78610095 41 144 C39.93056152 144.62229492 38.86112305 145.24458984 37.75927734 145.88574219 C32.83089416 148.7539452 27.90640724 151.62872677 22.984375 154.5078125 C11.25865116 161.36005652 -0.52244663 168.11723113 -12.29101562 174.89550781 C-13.91813477 175.83281738 -13.91813477 175.83281738 -15.578125 176.7890625 C-16.66085693 177.41272705 -17.74358887 178.0363916 -18.85913086 178.67895508 C-22.10217083 180.54933359 -25.34210804 182.42501038 -28.58203125 184.30078125 C-32.87657389 186.7846165 -37.18739375 189.23638904 -41.51171875 191.66796875 C-55.10786049 199.36324958 -67.64854187 206.9658137 -77.53515625 219.34375 C-80.57826876 222.78449588 -83.59740996 224.74377973 -88.234375 225.23828125 C-94.46648207 225.42214776 -97.95745524 224.73148312 -103 221 C-107.62230483 216.01277637 -108.30677369 212.09353015 -108.2109375 205.5 C-107.79215413 200.53664156 -105.87785793 197.84414404 -102.35546875 194.45703125 C-99.02959768 191.7546354 -95.58648279 190.81436646 -91.4375 190 C-90.00258649 189.67371942 -88.56898806 189.34160496 -87.13671875 189.00390625 C-86.43208496 188.83777832 -85.72745117 188.67165039 -85.00146484 188.50048828 C-66.11873808 183.77865492 -48.86730017 171.40684525 -32.265625 161.66796875 C-25.90228916 157.93674001 -19.51647312 154.24527449 -13.125 150.5625 C-12.04669922 149.94093018 -10.96839844 149.31936035 -9.85742188 148.67895508 C-5.47505863 146.15335398 -1.09200337 143.62895505 3.29101562 141.10449219 C18.88970859 132.11879235 34.46049568 123.08766485 50 114 C47.07024778 111.7124904 44.05999635 109.80021208 40.8359375 107.953125 C39.80984375 107.36337891 38.78375 106.77363281 37.7265625 106.16601562 C36.62054688 105.53373047 35.51453125 104.90144531 34.375 104.25 C33.20817378 103.58035607 32.04150991 102.91042916 30.875 102.24023438 C28.45212488 100.84851231 26.02855654 99.45800896 23.60449219 98.06835938 C18.06309973 94.8902897 12.53209253 91.69422027 7 88.5 C4.83338219 87.24991532 2.66671536 85.9999156 0.5 84.75 C-6 81 -6 81 -12.5 77.25 C-13.5732251 76.63084717 -14.6464502 76.01169434 -15.75219727 75.3737793 C-17.91159395 74.1279423 -20.07093669 72.88201182 -22.23022461 71.63598633 C-27.75767597 68.44651047 -33.28615121 65.25883115 -38.81640625 62.07421875 C-44.23677139 58.95282397 -49.65223195 55.82303505 -55.06640625 52.69091797 C-57.83037955 51.09776891 -60.60149106 49.51787788 -63.375 47.94140625 C-64.93763158 47.04450004 -66.50014134 46.14738155 -68.0625 45.25 C-69.11642944 44.65868286 -69.11642944 44.65868286 -70.19165039 44.05541992 C-74.88659871 41.34020388 -74.88659871 41.34020388 -76 38 C-75.27111572 37.59797363 -74.54223145 37.19594727 -73.79125977 36.78173828 C-57.01737042 27.56156335 -57.01737042 27.56156335 -40.4375 18 C-39.8074707 17.6292334 -39.17744141 17.2584668 -38.52832031 16.87646484 C-34.7187409 14.62943015 -30.93035202 12.35040999 -27.15336609 10.0489502 C-24.80196024 8.62253982 -22.44024473 7.21378585 -20.07669067 5.80761719 C-18.90979534 5.10807344 -17.74730036 4.40113136 -16.58956909 3.68652344 C-14.9631017 2.68364282 -13.31966064 1.70845213 -11.67578125 0.734375 C-10.72614502 0.15913086 -9.77650879 -0.41611328 -8.7980957 -1.00878906 C-5.08374422 -2.32457887 -3.54108766 -1.61050694 0 0 Z M-97 207 C-96.06545424 210.22843082 -95.55323559 211.66514688 -92.625 213.4375 C-90.06566269 214.16544618 -90.06566269 214.16544618 -87.75 213.5625 C-85.65991204 211.98172146 -85.65991204 211.98172146 -85.0625 208.5625 C-84.6952612 205.14019973 -84.6952612 205.14019973 -86.125 203.0625 C-91.44243922 200.04928444 -93.89208655 202.39568377 -97 207 Z M-113.1875 273.125 C-115.28085041 274.93572823 -115.28085041 274.93572823 -115.5 278 C-115.26252034 281.04015703 -115.26252034 281.04015703 -113.3125 282.9375 C-110.38550346 284.28233625 -109.01415011 284.03115662 -106 283 C-103.71069764 281.11861241 -103.71069764 281.11861241 -103.625 278.0625 C-103.69542599 274.93830843 -103.69542599 274.93830843 -105.8125 273.125 C-108.73563463 271.62167362 -110.26436537 271.62167362 -113.1875 273.125 Z " fill="#3300B7" transform="translate(221,164)"/>
<path d="M0 0 C13.2 0 26.4 0 40 0 C40 24.09 40 48.18 40 73 C45.28 70.69 50.56 68.38 56 66 C59.56804418 64.90779156 62.94837579 63.92879541 66.5625 63.125 C67.38556641 62.92648438 68.20863281 62.72796875 69.05664062 62.5234375 C94.57551768 56.49503558 124.22709218 57.79035849 146.9921875 71.84765625 C164.70403039 84.18707034 174.9927062 101.03679058 179.01298237 122.19364929 C180.58509942 131.35398234 180.37243728 140.5485681 180.29296875 149.8125 C180.28735777 151.76261057 180.2830948 153.71272544 180.28010559 155.6628418 C180.2687749 160.73938135 180.23941238 165.81565408 180.20599365 170.89208984 C180.16957084 177.01304614 180.15607542 183.13409279 180.13863373 189.25512695 C180.10976542 198.50360225 180.05219683 207.75149473 180 217 C167.13 217 154.26 217 141 217 C140.96261719 211.45960938 140.92523437 205.91921875 140.88671875 200.2109375 C140.85639771 196.67444968 140.82522292 193.13800968 140.79101562 189.6015625 C140.73695093 184.0039326 140.68583271 178.40639728 140.65356445 172.80859375 C140.62731263 168.28910758 140.58676069 163.76994411 140.53681374 159.25065994 C140.52029143 157.53738076 140.50868701 155.82404596 140.50238609 154.1106987 C140.43481431 137.40596214 139.15907004 120.69352617 127.12109375 107.87890625 C115.13471382 97.26113692 99.9724272 94.08858947 84.4140625 94.6875 C72.48616982 95.41259986 61.62242788 98.54344722 51.02055359 103.97376728 C49.67177815 104.65880602 48.30333081 105.30639005 46.91856384 105.91540051 C43.75218837 107.51300436 41.44522113 108.69720298 40.26075745 112.16315651 C39.97187027 114.93312585 39.94498503 117.60519319 40 120.38989258 C39.98907822 121.43425476 39.97815643 122.47861694 39.96690369 123.55462646 C39.94021837 127.00225197 39.96985853 130.44697306 40 133.89453125 C39.99248219 136.28636494 39.98144894 138.67818996 39.96704102 141.06999207 C39.93858926 147.3618324 39.95791071 153.65265633 39.98712158 159.94445801 C40.00850184 166.36603469 39.98478538 172.78742658 39.96484375 179.20898438 C39.93238053 191.80632246 39.95454404 204.40270181 40 217 C26.8 217 13.6 217 0 217 C0 145.39 0 73.78 0 0 Z " fill="#3300B7" transform="translate(1437,99)"/>
<path d="M0 0 C14.63458773 11.53028124 24.47779803 27.32286604 27.84375 45.6875 C27.97394531 46.38101563 28.10414063 47.07453125 28.23828125 47.7890625 C28.54258263 49.76093543 28.72113717 51.69597033 28.84375 53.6875 C28.92302734 54.97140625 28.92302734 54.97140625 29.00390625 56.28125 C29.60170279 75.61866842 23.32172813 94.22023278 10.53125 108.8125 C8.98524979 110.45320552 7.42316457 112.07893516 5.84375 113.6875 C5.17859375 114.37714844 4.5134375 115.06679688 3.828125 115.77734375 C-15.70396608 134.60121015 -44.40015139 140.23084018 -70.59057617 140.04125977 C-98.28821183 139.38815616 -125.67420045 130.51621547 -145.21875 110.03515625 C-158.59949646 93.82179209 -165.48132434 74.69882247 -163.91015625 53.5859375 C-162.00552398 33.98808942 -154.02549382 18.39500336 -140.15625 4.6875 C-139.49882813 4.01976562 -138.84140625 3.35203125 -138.1640625 2.6640625 C-102.6443587 -31.02630033 -37.47684456 -27.45828215 0 0 Z M-112.46875 31.875 C-120.69243379 41.58027864 -123.00757918 53.30453015 -122.15625 65.6875 C-119.78927579 78.51016342 -112.73305029 88.34035732 -102.22265625 95.7578125 C-87.67546897 104.91234819 -69.70841255 107.14543011 -52.9140625 104 C-39.13909657 100.61964026 -27.37071521 94.27300689 -19.34375 82.375 C-13.0917392 71.85506402 -11.13590935 60.71625397 -13.84765625 48.59765625 C-15.95307247 42.31664467 -19.09543357 36.90003943 -23.15625 31.6875 C-23.61128906 31.08292969 -24.06632812 30.47835937 -24.53515625 29.85546875 C-33.15444464 19.88590019 -48.1767234 15.03854167 -60.88671875 13.84765625 C-80.29192359 12.47827002 -98.71268796 17.68264495 -112.46875 31.875 Z " fill="#3300B7" transform="translate(810.15625,179.3125)"/>
<path d="M0 0 C-0.5761036 4.24779743 -2.04797464 7.07047437 -4.34375 10.66796875 C-5.01277344 11.72564453 -5.68179687 12.78332031 -6.37109375 13.87304688 C-7.07363281 14.96681641 -7.77617188 16.06058594 -8.5 17.1875 C-9.88595208 19.36814938 -11.27139522 21.54912235 -12.65625 23.73046875 C-13.27306641 24.69364014 -13.88988281 25.65681152 -14.52539062 26.64916992 C-15.99119479 28.90202826 -15.99119479 28.90202826 -17 31 C-18.175625 30.608125 -19.35125 30.21625 -20.5625 29.8125 C-21.37976562 29.54179687 -22.19703125 29.27109375 -23.0390625 28.9921875 C-25.22546179 28.25954183 -27.40707644 27.51258136 -29.5859375 26.7578125 C-51.86035187 19.07688146 -75.0262233 16.83343012 -97 27 C-107.90194135 33.13140734 -114.75103205 41.25388612 -119 53 C-121.85752596 64.28449741 -120.50175811 76.14586883 -114.71484375 86.2421875 C-106.1321788 98.53045988 -93.38293252 105.56695065 -78.84375 108.53125 C-54.90293891 111.45086111 -34.13080924 105.85634386 -13 95 C-1.41573356 113.2504188 -1.41573356 113.2504188 2.75 120.0625 C3.19859375 120.79597656 3.6471875 121.52945313 4.109375 122.28515625 C5 124 5 124 5 126 C-29.60625365 143.68087853 -68.13415171 151.60738693 -106.16699219 139.94799805 C-117.82095167 136.14911946 -127.55642546 130.84266381 -137 123 C-137.60457031 122.54109375 -138.20914062 122.0821875 -138.83203125 121.609375 C-153.08326535 110.41427462 -160.48816754 91.72444753 -162.75 74.1875 C-162.85625522 72.79322421 -162.93982858 71.39702346 -163 70 C-163.05994141 68.87464844 -163.05994141 68.87464844 -163.12109375 67.7265625 C-163.66434553 47.97776258 -157.62365294 28.61453193 -144.5625 13.6875 C-143.06025606 12.10711921 -141.54046028 10.54315339 -140 9 C-139.38640625 8.37480469 -138.7728125 7.74960938 -138.140625 7.10546875 C-103.48173255 -25.70198713 -39.28707584 -20.54461764 0 0 Z " fill="#3300B7" transform="translate(1412,174)"/>
</svg>
